<?xml version="1.0" encoding="utf-8"?>
<!-- Generator: Adobe Illustrator 24.0.3, SVG Export Plug-In . SVG Version: 6.00 Build 0)  -->
<svg version="1.1" id="Layer_1" xmlns="http://www.w3.org/2000/svg" xmlns:xlink="http://www.w3.org/1999/xlink" x="0px" y="0px"
	 viewBox="0 0 19.2 19.8" style="enable-background:new 0 0 19.2 19.8;" xml:space="preserve">
<style type="text/css">
	.st0{fill:#FFFFFF;}
</style>
<g>
	<path class="st0" d="M13.2,0H6C2.7,0,0,2.8,0,6.2v7.4c0,3.4,2.7,6.2,6,6.2h7.2c3.3,0,6-2.8,6-6.2V6.2C19.2,2.8,16.5,0,13.2,0
		L13.2,0z M17.4,13.6c0,2.4-1.9,4.3-4.2,4.3H6c-2.3,0-4.2-1.9-4.2-4.3V6.2c0-2.4,1.9-4.3,4.2-4.3h7.2c2.3,0,4.2,1.9,4.2,4.3V13.6z
		 M17.4,13.6"/>
	<path class="st0" d="M9.6,4.9c-2.6,0-4.8,2.2-4.8,4.9c0,2.7,2.1,4.9,4.8,4.9s4.8-2.2,4.8-4.9C14.4,7.2,12.2,4.9,9.6,4.9L9.6,4.9z
		 M9.6,13c-1.7,0-3-1.4-3-3.1c0-1.7,1.3-3.1,3-3.1s3,1.4,3,3.1C12.6,11.6,11.2,13,9.6,13L9.6,13z M9.6,13"/>
	<path class="st0" d="M15.4,4.6c0,0.4-0.3,0.7-0.6,0.7c-0.4,0-0.6-0.3-0.6-0.7c0-0.4,0.3-0.7,0.6-0.7C15.1,3.9,15.4,4.2,15.4,4.6
		L15.4,4.6z M15.4,4.6"/>
</g>
</svg>
